<svg width="48" height="48" viewBox="0 0 48 48" fill="none" xmlns="http://www.w3.org/2000/svg">
<path d="M42.6236 16.7042C46.6415 27.0041 41.5691 38.6091 31.2662 42.6251C29.0215 43.499 26.6385 43.9647 24.23 44.0001L32.4097 29.8428C35.177 25.8829 34.7605 20.5323 31.4859 17.0362L31.1607 16.7042H42.6236ZM14.73 28.3428C16.8443 32.867 21.9196 35.2004 26.73 33.8594L20.9986 43.7667C10.0707 42.1067 2.5702 31.9133 4.23002 20.9874C4.58962 18.6023 5.38263 16.3028 6.56986 14.2032L14.73 28.3428ZM23.9986 16.7383C25.9261 16.7368 27.775 17.5017 29.1382 18.8643C30.5015 20.2272 31.2671 22.0763 31.2662 24.004C31.2672 25.9317 30.5015 27.7807 29.1382 29.1436C27.775 30.5065 25.9262 31.2721 23.9986 31.2706C22.0708 31.2722 20.2213 30.5066 18.858 29.1436C17.4948 27.7807 16.729 25.9316 16.73 24.004C16.729 22.0763 17.4947 20.2272 18.858 18.8643C20.2212 17.5014 22.0709 16.7368 23.9986 16.7383ZM8.35502 11.544C15.23 2.90402 27.8204 1.4747 36.4624 8.34968C38.371 9.85973 39.9818 11.712 41.2124 13.8116H24.8912L23.9986 13.7764C19.3386 13.7764 15.2664 16.9372 14.0874 21.4522L8.35502 11.544Z" fill="black" fill-opacity="0.84"/>
</svg>
