<svg width="48" height="48" viewBox="0 0 48 48" fill="none" xmlns="http://www.w3.org/2000/svg">
<path d="M29.5 3C30.3284 3 31 3.67157 31 4.5V6H36C39.3137 6 42 8.68629 42 12V36C42 39.3137 39.3137 42 36 42H12C8.68629 42 6 39.3137 6 36V12C6 8.68629 8.68629 6 12 6H16V4.5C16 3.67157 16.6716 3 17.5 3C18.3284 3 19 3.67157 19 4.5V6H28V4.5C28 3.67157 28.6716 3 29.5 3ZM9 36C9 37.5975 10.2487 38.9036 11.8232 38.9951L12 39H36C37.5975 39 38.9036 37.7513 38.9951 36.1768L39 36V19H9V36ZM28.5 27C29.3284 27 30 27.6716 30 28.5C30 29.3284 29.3284 30 28.5 30H19.5C18.6716 30 18 29.3284 18 28.5C18 27.6716 18.6716 27 19.5 27H28.5ZM12 9C10.4025 9 9.09636 10.2487 9.00488 11.8232L9 12V16H39V12C39 10.4025 37.7513 9.09636 36.1768 9.00488L36 9H31V10.5C31 11.3284 30.3284 12 29.5 12C28.6716 12 28 11.3284 28 10.5V9H19V10.5C19 11.3284 18.3284 12 17.5 12C16.6716 12 16 11.3284 16 10.5V9H12Z" fill="black" fill-opacity="0.84"/>
</svg>
