<svg preserveAspectRatio="none" width="100%" height="100%" overflow="visible" style="display: block;" viewBox="0 0 14 14" fill="none" xmlns="http://www.w3.org/2000/svg">
<g id="icon/finance/benefit/filled">
<path id="Vector" fill-rule="evenodd" clip-rule="evenodd" d="M1.30882 5.26974C1.14801 4.00885 2.61529 3.20346 3.59266 4.01615L4.375 4.66666L5.82302 2.41858C6.37429 1.56272 7.62571 1.56272 8.17698 2.41858L9.625 4.66666L10.3117 4.08858C11.2926 3.26278 12.7753 4.08059 12.6002 5.35083L11.8083 11.0936C11.7128 11.7864 11.1207 12.3024 10.4214 12.3024H3.43852C2.7338 12.3024 2.13892 11.7786 2.04977 11.0795L1.30882 5.26974ZM5.11801 7.55043C5.11801 7.66644 5.16409 7.7777 5.24612 7.85973L6.68974 9.30347C6.77179 9.38551 6.88307 9.43161 6.9991 9.43161C7.11513 9.43161 7.22641 9.38551 7.30846 9.30347L8.75213 7.85979C8.92289 7.68891 8.92289 7.41195 8.75207 7.24113C8.58125 7.07031 8.3043 7.07031 8.13348 7.24113L6.9991 8.37539L5.86478 7.24107C5.6939 7.07031 5.41695 7.07031 5.24612 7.24113C5.16409 7.32316 5.11801 7.43442 5.11801 7.55043Z" fill="url(#paint0_linear_0_1158)"/>
</g>
<defs>
<linearGradient id="paint0_linear_0_1158" x1="-0.144361" y1="1.77669" x2="-0.144361" y2="14.9827" gradientUnits="userSpaceOnUse">
<stop stop-color="#E88B3D"/>
<stop offset="1" stop-color="#FFD1B7"/>
</linearGradient>
</defs>
</svg>
