<svg width="48" height="48" viewBox="0 0 48 48" fill="none" xmlns="http://www.w3.org/2000/svg">
<path d="M37 7C40.3137 7 43 9.68629 43 13V31C43 34.3137 40.3137 37 37 37H30.082C30.029 37 29.9779 37.0211 29.9404 37.0586L24.707 42.293C24.3165 42.6834 23.6835 42.6834 23.293 42.293L18.0586 37.0586C18.0211 37.0211 17.97 37 17.917 37H11C7.68629 37 5 34.3137 5 31V13C5 9.68629 7.68629 7 11 7H37ZM11 10C9.40248 10 8.09636 11.2487 8.00488 12.8232L8 13V31C8 32.5975 9.24866 33.9036 10.8232 33.9951L11 34H19.0352C19.1677 34 19.2949 34.0528 19.3887 34.1465L23.8574 38.6143C23.9355 38.6924 24.0625 38.6923 24.1406 38.6143L28.6094 34.1465C28.7031 34.0528 28.8304 34.0001 28.9629 34H37C38.5975 34 39.9036 32.7513 39.9951 31.1768L40 31V13C40 11.4025 38.7513 10.0964 37.1768 10.0049L37 10H11ZM28.208 22.1836C28.659 21.4887 29.5883 21.2912 30.2832 21.7422C30.9778 22.1932 31.1753 23.1216 30.7246 23.8164C29.2451 26.0961 26.732 27.5019 23.9824 27.502C21.2376 27.502 18.7278 26.1013 17.2471 23.8281C16.7952 23.1341 16.9916 22.2051 17.6855 21.7529C18.3795 21.3009 19.3085 21.4967 19.7607 22.1904C20.6952 23.625 22.2662 24.502 23.9824 24.502C25.7016 24.5019 27.2743 23.6222 28.208 22.1836Z" fill="black" fill-opacity="0.84"/>
</svg>
