<svg width="48" height="48" viewBox="0 0 48 48" fill="none" xmlns="http://www.w3.org/2000/svg">
<path d="M35 4C38.3137 4 41 6.68629 41 10V38C41 41.3137 38.3137 44 35 44H13C9.68629 44 7 41.3137 7 38V10C7 6.68629 9.68629 4 13 4H35ZM14 7C11.7909 7 10 8.79086 10 11V37C10 39.2091 11.7909 41 14 41H33.4355C33.912 40.9996 33.9883 40.3156 33.5234 40.21L16.5566 36.3535C15.6462 36.1465 15 35.3371 15 34.4033V13.5967C15 12.6629 15.6462 11.8535 16.5566 11.6465L33.5234 7.79004C33.9883 7.68439 33.912 7.00041 33.4355 7H14ZM21 22C19.8954 22 19 22.8954 19 24C19 25.1046 19.8954 26 21 26C22.1046 26 23 25.1046 23 24C23 22.8954 22.1046 22 21 22Z" fill="black" fill-opacity="0.84"/>
</svg>
